<?xml version="1.0" encoding="UTF-8" standalone="no"?>
<!-- Created with Inkscape (http://www.inkscape.org/) -->

<svg
   version="1.1"
   id="svg222"
   width="480"
   height="449.33334"
   viewBox="0 0 480 449.33334"
   xmlns="http://www.w3.org/2000/svg"
   xmlns:svg="http://www.w3.org/2000/svg">
  <defs
     id="defs226" />
  <g
     id="layer1">
    <path
       style="fill:#000000;stroke-width:1.33333;image-rendering:auto"
       d="m 363.19689,406.97959 c -0.80837,-0.53877 -3.91312,-6.21606 -6.89942,-12.6162 -2.98631,-6.40013 -8.54142,-16.13794 -12.3447,-21.63957 -15.80374,-22.86093 -14.90718,-36.95296 4.88767,-76.82426 13.546,-27.28466 13.43811,-28.36586 -3.99237,-40.00986 -8.82858,-5.89771 -14.92432,-6.72136 -20.64224,-2.78916 -6.48136,4.45722 -11.93886,5.96485 -17.89766,4.94421 -8.67025,-1.48505 -10.28902,-1.29719 -20.30817,2.35681 -20.81777,7.5923 -52.41683,10.00595 -73.24136,5.59443 -11.13917,-2.35975 -11.36921,-2.19787 -7.67679,5.40227 1.60499,3.30353 2.91815,6.29036 2.91815,6.63741 0,0.34705 -21.78229,0.631 -48.40511,0.631 H 111.18978 L 106.66667,274 c -3.97523,-4.1014 -8.000003,-6.07998 -8.000003,-3.93282 0,1.51298 16.503503,41.55893 20.028553,48.59949 7.59544,15.17039 10.01059,30.46699 6.3832,43.32969 -2.13442,7.56864 -0.69925,7.45821 -9.96682,-2.81793 -5.34114,-5.92242 -12.38355,-16.6323 -20.491156,-31.25831 -3.86182,-6.96667 -10.204065,-18.88454 -14.211985,-24.95218 -12.001651,-18.16946 -28.904496,-58.04519 -34.456071,-81.2858 l -2.30542,-9.65122 1.617633,-8.22226 C 47.474275,192.57711 55.104749,168.48562 66.477997,136.8322 78.976551,102.04688 78.85674,98.883379 63.986775,71.053332 60.327381,64.204556 57.333333,58.343861 57.333333,58.029566 c 0,-2.443845 38.477919,-15.105335 49.361807,-16.242925 9.78723,-1.02297 10.71421,-0.333152 16.56272,12.325173 2.46262,5.330006 8.09784,15.285304 12.52273,22.122887 16.4869,25.476499 16.00042,35.248199 -3.81248,76.580779 -12.25461,25.56491 -12.56801,27.46106 -5.63478,34.09198 12.09858,11.57104 22.23334,14.48168 31.46307,9.03601 7.03548,-4.15104 11.94601,-5.15065 18.46853,-3.75953 l 5.87248,1.25248 13.9313,-4.6579 c 23.86204,-7.97822 54.1367,-9.18772 74.07074,-3.77488 4.60341,1.25 7.79479,1.71583 8.22829,1.0233 0.3554,-0.56778 -1.16007,-2.44433 -3.26974,-6.13501 -1.85052,-3.23732 -3.07311,-7.67526 -3.08193,-8.22526 -0.009,-0.55 21.71122,-1 48.2668,-1 h 48.28286 l 5.68918,5.58351 c 10.18108,9.99197 8.10545,1.91678 -10.36007,-40.30554 -5.36837,-12.27503 -8.76685,-14.75424 -10.19102,-30.1642 -0.88336,-9.558218 -0.003,-20.202241 3.53374,-22.387911 1.64269,-1.015237 18.85932,23.241881 27.66335,38.975871 4.69468,8.39003 10.76253,18.57196 13.4841,22.62651 8.71498,12.98336 10.78047,16.72785 17.10278,31.00509 25.67238,57.9743 25.62788,60.11577 -2.91662,140.37012 -5.65707,15.90513 -8.05261,27.31234 -6.70868,38.03491 0.67196,5.36129 3.21649,9.67723 5.81793,15.17286 2.60144,5.49563 5.25979,12.17095 9.91019,18.75425 l 2.58927,3.66548 -3.08993,1.19523 c -1.69947,0.65737 -7.69366,3.03332 -13.3204,5.27988 -18.89599,7.54446 -39.97927,11.56829 -44.57266,8.50686 z m 25.36275,-4.98596 c 14.02316,-4.06374 30.10703,-10.22102 30.10703,-11.52566 0,-0.526 -3.01462,-6.82396 -6.69914,-13.99544 -13.38092,-26.04436 -13.40814,-28.24362 -0.79161,-63.95005 5.41341,-15.32069 11.52211,-33.05981 13.57487,-39.42025 l 3.73228,-11.56445 -34.57487,-35.59994 -34.57487,-35.59993 -9.82865,0.82773 -9.82864,0.82774 -17.83803,10.86953 L 304,213.73244 v 4.71451 c 0,3.00297 -1.05068,5.83292 -2.89415,7.7952 -5.54453,5.90188 -0.80527,5.02476 13.33046,-2.46712 6.37961,-3.38117 11.92884,-7.11246 17.2588,-8.45925 5.32996,-1.3468 10.44065,-0.30909 15.94319,1.753 5.50254,2.0621 11.08267,7.42922 18.29427,13.01777 7.21161,5.58855 16.01491,13.36692 26.90044,22.73241 3.2451,2.79195 0.94523,4.28082 -1.29363,3.39947 -2.23886,-0.88135 -5.89881,-3.61766 -9.92531,-7.76692 -5.10582,-5.26148 -15.59202,-11.57156 -23.28606,-15.36239 l -13.66134,-6.73088 -11.33334,3.62375 C 317.33169,235.0984 316,236.12416 316,243.33334 c 0,4.86312 -0.60364,6.33404 -3.33333,8.12261 -7.78656,5.10195 -2.51874,6.02657 6.62777,1.16332 9.42917,-5.01353 16.23797,-5.57051 22.72779,-1.85919 8.8256,5.0471 16.73304,12.00192 18.96325,16.67871 l 2.10825,4.42107 -3.73609,8.4034 c -2.05485,4.62188 -6.70404,14.40341 -10.33152,21.73674 -17.51036,35.39899 -17.59484,46.80778 -0.53784,72.62631 4.10339,6.21115 9.10221,15.21115 11.10849,20 5.23919,12.50556 8.43055,13.31736 28.96287,7.36732 z M 123.25441,356.50642 c 0.65608,-2.61403 -0.21766,-5.29951 -3.4705,-10.66667 l -4.34734,-7.17308 h -4.38495 c -5.78783,0 -5.59284,0.95454 2.44554,11.97168 7.57295,10.37924 8.48704,10.92899 9.75725,5.86807 z m -1.48196,-22.20204 c -1.13664,-3.83407 -3.13484,-9.07104 -4.44045,-11.63771 -4.05113,-7.96401 -16.16328,-37.39395 -20.678661,-50.24472 l -4.30243,-12.24471 -20.34907,-19.42196 C 60.809849,230.07322 49.655392,219.62146 48.97751,219.86249 c -4.269061,1.51793 20.715699,63.29895 34.004126,82.24146 3.126767,4.45717 8.963448,13.90717 12.970404,21 L 103.23741,336 h 6.89462 6.89461 l 2.21192,3.37583 c 3.4731,5.30062 4.81347,2.61794 2.53389,-5.07145 z m 54.76288,-64.97104 c 4.88852,-5.03932 7.42971,-6.66667 10.41036,-6.66667 2.56264,0 3.74824,-0.58352 3.38636,-1.66667 -0.65296,-1.9544 -40.93874,-2.20429 -59.47886,-0.36894 l -11.1468,1.10345 -33.692433,-34.53392 C 67.48312,208.20694 50.773806,192.35017 50.773806,192.35017 c 0,0 -4.134492,15.48469 -3.943927,18.53529 0.135832,2.17443 0.528369,2.03404 1.729741,3.20791 5.298955,5.17767 20.144958,19.28425 29.083976,27.93439 l 35.023074,33.89124 28.70074,0.0405 28.70075,0.0405 6.46717,-6.66667 z m 26.13134,4.84648 c 0,-4.75884 -5.40614,-8.84648 -11.69996,-8.84648 h -6.1731 l -4.3968,4.26156 c -6.2877,6.09428 -5.85404,6.4051 8.93652,6.4051 10.37756,0 13.33334,-0.4035 13.33334,-1.82018 z m 61.60104,-10.27427 C 275.7202,261.59127 292,255.9063 292,254.22131 c 0,-1.34301 5.27531,-6.52477 12.34789,-11.82326 3.53629,-2.64924 8.02278,-6.64941 11.34449,-8.80215 3.32172,-2.15273 6.15691,-2.9414 7.94223,-3.60739 4.58467,-1.71023 7.03206,-2.92769 7.03206,-4.48169 0,-2.84045 -0.67834,-4.18607 -3.24399,-3.90387 -2.56565,0.2822 -7.01862,2.19222 -14.56789,5.86303 L 298,234.68906 l -4.74247,-1.3361 c -2.60834,-0.73484 -6.32802,-2.99106 -8.26594,-5.01381 l -3.5235,-3.67773 14.1352,-8.66404 c 18.19095,-11.14998 16.93454,-14.24355 -9.69876,-23.8806 -22.96413,-8.3094 -40.90204,-9.83472 -28.32612,-2.40867 34.56311,20.40941 22.13987,69.59323 -17.57841,69.59323 -39.36907,0 -51.9522,-49.47451 -17.68993,-69.55354 3.22653,-1.89088 5.37672,-3.91942 4.77818,-4.50788 C 224.24077,182.4404 188,192.00406 188,195.555 c 0,3.08798 -24.18016,21.19074 -31.58189,23.64416 -7.35854,2.43911 -8.78234,4.05872 -6.8577,7.80084 1.82551,3.54936 4.46098,2.91135 17.89982,-4.33333 15.80584,-8.52069 24.27345,-8.47099 29.67246,0.17419 l 1.58015,2.53024 -6.14717,3.64778 c -24.96018,14.81158 -25.23808,15.22484 -14.32527,21.30308 23.65757,13.17683 59.79949,18.88359 86.02731,13.58359 z m -106.07254,-16.74147 17.13816,-10.58678 0.77698,-5.7775 c 0.4532,-3.37004 1.70329,-6.29589 3,-7.02157 2.06192,-1.15391 3.18825,-5.11156 1.45472,-5.11156 -0.42258,0 -7.52887,3.6 -15.79178,8 l -15.02346,8 -6.54156,-0.0937 c -3.59786,-0.0515 -7.55508,-0.50154 -8.79382,-1 -4.29061,-1.7265 -47.667214,-37.9579 -46.910139,-39.18287 0.42594,-0.68919 1.728672,-0.41836 2.961432,0.61564 1.21053,1.01536 5.800964,4.89045 10.200967,8.61132 4.4,3.72087 14.02321,9.77105 21.38491,13.44485 0,0 10.37225,5.88997 14.05852,5.83959 3.62146,-0.0495 11.94147,-3.17175 11.94147,-3.17175 15.49207,-4.9267 17.28176,-6.36878 17.28176,-13.92506 0,-4.33806 0.66598,-6.19796 2.66667,-7.44742 8.81468,-5.50486 0.66227,-5.70517 -8.90409,-0.21878 -12.2339,7.01625 -32.14833,-0.9297 -39.995,-15.95819 l -1.99436,-3.81973 3.63896,-8.18027 c 2.00143,-4.49915 6.82715,-14.62639 10.72382,-22.50499 17.08968,-34.55322 17.13383,-47.02639 0.2582,-72.944827 C 126.69118,66.995372 121.30826,57.20704 119.76548,52.978606 115.57813,41.501957 106.79133,41.434653 76.666667,52.648485 59.63242,58.989441 60.196827,58.054305 66.485739,69.51675 c 14.661,26.721782 15.280973,34.14469 5.114053,61.23028 -4.007947,10.67753 -10.095413,28.00621 -13.527703,38.50817 l -6.240525,19.0945 14.369675,14.82516 c 7.903321,8.15382 23.691218,24.19249 35.084221,35.64148 L 122,259.63267 l 9.5285,-0.94089 9.5285,-0.9409 z m 95.13816,7.39787 C 287.44877,239.13711 277.20525,188 240,188 c -32.17603,0 -46.33155,39.6373 -21.85108,61.18587 9.76483,8.59535 23.44212,10.6852 35.18441,5.37608 z m -24.6781,-6.38192 c -6.72199,-3.05373 -13.42159,-10.58931 -15.24172,-17.14359 -7.81835,-28.15366 27.43956,-47.14269 47.40768,-25.53258 19.69325,21.31261 -5.52948,54.77686 -32.16596,42.67617 z m 25.24184,-4.67779 c 12.42013,-9.47329 14.22774,-24.27297 4.41822,-36.17362 -17.23593,-20.91018 -49.73076,-1.17106 -41.10385,24.9687 4.71585,14.28919 24.6568,20.37976 36.68563,11.20492 z m -76.56374,11.18115 c 0,-5.77033 -12.77329,-8.88267 -19.02382,-4.63532 -7.39067,5.02209 -6.29338,5.95193 7.02382,5.95193 7.00948,0 12,-0.54754 12,-1.31661 z m 254.01405,-5.37703 1.5192,-13.15214 -14.94415,-14.50923 c -8.67269,-8.42028 -23.79368,-22.61097 -33.41411,-31.73057 l -17.49168,-16.58108 h -27.89177 -27.89178 l -6.49908,6.59829 c -4.42854,4.49615 -7.77813,6.72627 -10.51385,7 -2.20813,0.22093 -4.261,1.15171 -4.56192,2.06837 -0.92528,2.81858 38.16508,3.03695 58.78353,0.32838 l 11.77511,-1.54686 33.39795,34.16267 c 36.84572,37.68936 35.15361,40.28218 37.73255,27.36217 z m -124.09026,2.56194 c 4.73216,-2.79204 6.88815,-9.22716 3.07621,-9.18179 -2.87885,0.0343 -12.18293,8.7328 -11.14209,10.41692 1.3434,2.17367 2.61964,1.97823 8.06588,-1.23513 z m -159.9468,-21.1644 c 1.91964,-3.10604 -3.31652,-5.93939 -11.16565,-6.04187 -9.08601,-0.11867 -9.81658,0.56408 -4.478,4.18463 5.86353,3.97657 13.75482,4.91342 15.64365,1.85724 z m 40.37245,-1.37056 c 5.81155,-3.40886 6.67002,-5.9858 2.80486,-8.41962 -3.27986,-2.06525 -10.3174,3.92496 -10.41386,8.86406 -0.0405,2.07778 0.37623,3.57778 0.92623,3.33333 0.55,-0.24444 3.55725,-1.94444 6.68277,-3.77777 z m 108.9375,-2.80479 c 8.24497,-7.23917 5.47828,-11.31884 -3.93492,-5.80233 -6.78054,3.97365 -6.86134,4.13268 -3.81203,7.50213 2.76413,3.05433 2.18843,3.18065 7.74695,-1.6998 z m 133.52045,-2.61564 c -2.23883,-14.00089 -22.43031,-61.71099 -31.00011,-73.24965 -2.99417,-4.03146 -9.2638,-14.07992 -13.9325,-22.32992 l -8.48856,-15 -6.60143,0.45269 -5.93728,-0.0581 -3.67448,-4.06128 -3.36572,-3.66667 0.62395,5.57578 c 0.34317,3.06668 3.05008,10.86668 6.01536,17.33334 6.64918,14.50048 18.53482,44.02282 21.48556,53.36728 l 2.19245,6.94307 21.14868,20.05693 c 23.95019,22.71383 22.68859,21.85634 21.53408,14.63651 z m -78.75506,-0.85296 c -1.25644,-1.73907 -8.75178,-5.72661 -13.05614,-5.72661 -5.64929,0 -7.06276,1.52873 -4.78531,5.17552 l 1.63455,2.61733 9.78151,-1.89422 c 5.04247,2.2792 9.4164,3.96792 8.50797,2.71053 z M 175.75763,203.71467 c 5.57716,-4.28645 6.81504,-6.79133 4.16541,-8.42889 C 177.33188,193.68435 168,201.04135 168,204.68559 c 0,4.31563 1.05024,4.18419 7.75763,-0.97092 z m 145.00494,-3.17469 c 9.3876,-5.50151 7.9639,-7.20664 -6.01721,-7.20664 -14.2444,0 -15.62167,1.2749 -7.13443,6.60418 7.69015,4.82879 6.06684,4.75443 13.15164,0.60246 z m -20.42924,-20.279 c 6.41823,-5.99792 5.12092,-6.92764 -9.66666,-6.92764 -14.58018,0 -15.01488,0.29777 -10.6782,7.31466 l 2.65513,4.29611 7.01153,-0.62829 c 5.12144,-0.45892 7.99995,-1.55198 10.6782,-4.05484 z M 373.908,110.81552 c 1.01151,-1.63664 -13.81921,-21.694436 -15.34404,-20.75204 -1.8762,3.14506 -2.151,6.484811 0.37189,10.96155 1.26144,2.23837 3.05823,4.9739 4.85249,7.20793 1.75472,2.18481 4.12785,2.92691 5.38405,3.08735 2.09382,0 4.33298,0.1467 4.73561,-0.50479 z m -137.01911,61.62892 c -1.58509,-1.58509 -1.04705,-56.71938 0.54832,-56.18759 1.2679,0.42263 1.98146,55.43559 0.73522,56.68185 -0.21706,0.21705 -0.79466,-0.005 -1.28354,-0.49426 z M 207.66667,154.08759 C 197.112,137.21443 196.49415,136 198.46433,136 c 0.94535,0 6.0536,7.60238 21.27776,31.66667 l 1.89794,3 -1.82002,-0.0299 C 218.819,170.6204 213.35,163.17323 207.66667,154.0876 Z M 255.43953,169 c 9.05799,-16.22864 23.22714,-35.88113 23.22714,-32.21586 0,2.22493 -20.92212,33.82716 -22.41203,33.85265 -1.00684,0.0172 -1.35173,-0.67533 -0.81511,-1.63679 z"
       id="path451" />
  </g>
</svg>
