<!--?xml version="1.0" encoding="utf-8"?-->
<!-- Generator: Adobe Illustrator 18.1.1, SVG Export Plug-In . SVG Version: 6.00 Build 0)  -->

<svg version="1.1" id="_x32_" xmlns="http://www.w3.org/2000/svg" xmlns:xlink="http://www.w3.org/1999/xlink" x="0px" y="0px" viewBox="0 0 512 512" style="width: 256px; height: 256px; opacity: 1;" xml:space="preserve">
<style type="text/css">
	.st0{fill:#4B4B4B;}
</style>
<g>
	<path class="st0" d="M245.426,238.816c3.353,1.474,10.088,4.076,10.088,4.076l0.491,0.097l0.482-0.097
		c0,0,6.735-2.602,10.073-4.076c52.862-23.384,61.692-59.207,61.692-77.975c0-19.963-16.172-36.131-36.126-36.131
		c-19.944,0-36.121,16.168-36.121,36.131c0-19.963-16.177-36.131-36.131-36.131c-19.959,0-36.131,16.168-36.131,36.131
		C183.743,179.61,192.587,215.432,245.426,238.816z" style="fill: rgb(75, 75, 75);"></path>
	<path class="st0" d="M493.891,183.618l-53.638-44.398V63.644h-91.339L285.603,11.25c-8.57-7.111-19.12-10.675-29.598-10.666
		c-10.483-0.009-21.034,3.556-29.603,10.656l-63.316,52.404H71.747v75.577l-53.632,44.398C6.639,193.118,0,207.224,0,222.119
		v235.786c-0.01,14.731,6.012,28.202,15.676,37.846c9.635,9.654,23.104,15.676,37.832,15.666h404.984
		c14.727,0.01,28.196-6.012,37.837-15.666c9.664-9.644,15.68-23.114,15.671-37.846V222.119
		C512,207.224,505.366,193.118,493.891,183.618z M244.973,33.699c3.223-2.66,7.087-3.97,11.032-3.97c3.936,0,7.804,1.31,11.023,3.97
		l44.359,36.699H200.623L244.973,33.699z M100.14,153.557l0.747-0.616V92.78h72.691l1.894-1.561h161.057l1.894,1.561h71.752v144.871
		l-96.85,34.29H196.99l-96.85-34.29V153.557z M482.863,457.905c-0.009,6.783-2.707,12.786-7.139,17.236
		c-4.456,4.442-10.454,7.13-17.232,7.14H53.508c-6.774-0.01-12.776-2.698-17.232-7.14c-4.432-4.451-7.126-10.453-7.135-17.236
		V222.119c0-6.205,2.765-12.092,7.55-16.051l42.639-35.284v59.496l-26.78-9.49l-6.942,19.617l147.809,52.356h123.482l147.818-52.356
		l-6.952-19.617l-26.776,9.48v-60.883l44.359,36.719c4.754,3.96,7.515,9.828,7.515,16.013V457.905z" style="fill: rgb(75, 75, 75);"></path>
</g>
</svg>
