<!--?xml version="1.0" encoding="utf-8"?-->
<!-- Generator: Adobe Illustrator 18.1.1, SVG Export Plug-In . SVG Version: 6.00 Build 0)  -->

<svg version="1.1" id="_x32_" xmlns="http://www.w3.org/2000/svg" xmlns:xlink="http://www.w3.org/1999/xlink" x="0px" y="0px" viewBox="0 0 512 512" style="width: 256px; height: 256px; opacity: 1;" xml:space="preserve">
<style type="text/css">
	.st0{fill:#4B4B4B;}
</style>
<g>
	<path class="st0" d="M487.102,87.702c-15.328-15.354-36.73-24.924-60.147-24.901H85.045c-23.416-0.022-44.82,9.548-60.143,24.901
		C9.536,103.034,0,124.411,0,147.831v216.33c0,23.42,9.536,44.805,24.902,60.129c15.324,15.362,36.727,24.916,60.143,24.909h341.911
		c23.416,0.007,44.819-9.548,60.147-24.909C502.464,408.966,512,387.581,512,364.161v-216.33
		C512,124.411,502.464,103.034,487.102,87.702z M473.362,364.161c-0.019,12.87-5.174,24.333-13.588,32.803
		c-8.459,8.433-19.929,13.588-32.818,13.588H85.045c-12.888,0-24.355-5.155-32.802-13.588c-8.429-8.47-13.585-19.933-13.603-32.803
		v-216.33c0.018-12.878,5.174-24.333,13.603-32.803c8.447-8.433,19.914-13.588,32.802-13.588h341.911
		c12.889,0,24.359,5.155,32.803,13.588c8.429,8.47,13.584,19.926,13.603,32.803V364.161z" style="fill: rgb(75, 75, 75);"></path>
	<path class="st0" d="M149.636,185.923L87.45,123.371L71.012,139.72l68.695,69.085C141.552,200.484,144.982,192.74,149.636,185.923z
		" style="fill: rgb(75, 75, 75);"></path>
	<path class="st0" d="M440.989,139.72l-16.439-16.349l-62.187,62.552c4.655,6.817,8.085,14.561,9.929,22.882L440.989,139.72z" style="fill: rgb(75, 75, 75);"></path>
	<polygon class="st0" points="351.556,290.063 336.508,307.707 337.1,308.216 435.321,392.003 450.372,374.352 351.967,290.422 	" style="fill: rgb(75, 75, 75);"></polygon>
	<polygon class="st0" points="160.048,290.438 61.644,374.352 76.702,392.003 174.919,308.216 175.514,307.707 160.482,290.063 	" style="fill: rgb(75, 75, 75);"></polygon>
	<path class="st0" d="M299.512,184.772c-24.03,0-43.51,19.476-43.51,43.517c0-24.041-19.484-43.517-43.514-43.517
		c-24.034,0-43.514,19.476-43.514,43.517c0,22.598,10.644,65.74,74.293,93.904c4.033,1.78,12.144,4.916,12.144,4.916
		c0.183,0.075,0.388,0.112,0.591,0.112c0.198,0,0.404-0.037,0.588-0.112c0,0,8.111-3.135,12.136-4.916
		c63.656-28.164,74.3-71.307,74.3-93.904C343.026,204.248,323.545,184.772,299.512,184.772z" style="fill: rgb(75, 75, 75);"></path>
</g>
</svg>
