<!--?xml version="1.0" encoding="utf-8"?-->
<!-- Generator: Adobe Illustrator 18.0.0, SVG Export Plug-In . SVG Version: 6.00 Build 0)  -->

<svg version="1.1" id="_x32_" xmlns="http://www.w3.org/2000/svg" xmlns:xlink="http://www.w3.org/1999/xlink" x="0px" y="0px" viewBox="0 0 512 512" style="width: 64px; height: 64px; opacity: 1;" xml:space="preserve">
<style type="text/css">
	.st0{fill:#4B4B4B;}
</style>
<g>
	<polygon class="st0" points="293.07,161.809 323.556,161.649 323.716,192.454 360.985,192.454 360.825,161.903 360.825,161.809 
		391.63,161.649 391.471,124.61 391.471,124.543 391.47,124.543 391.47,124.383 360.985,124.543 360.825,93.734 323.556,93.894 
		323.716,124.383 292.91,124.543 	" style="fill: rgb(75, 75, 75);"></polygon>
	<polygon class="st0" points="251.304,161.079 251.146,125.437 251.146,125.269 251.144,125.269 251.144,125.109 120.347,125.269 
		120.507,161.079 	" style="fill: rgb(75, 75, 75);"></polygon>
	<polygon class="st0" points="391.63,259.287 391.471,223.532 391.471,223.474 391.47,223.474 391.47,223.314 120.347,223.474 
		120.507,259.287 	" style="fill: rgb(75, 75, 75);"></polygon>
	<polygon class="st0" points="391.471,321.74 391.471,321.682 391.47,321.682 391.47,321.522 120.347,321.682 120.507,357.495 
		391.63,357.495 	" style="fill: rgb(75, 75, 75);"></polygon>
	<path class="st0" d="M470.706,0L41.134,0.16l0.16,510.278v1.402l0,0V512h313.55l116.021-116.088L470.706,0z M89.424,48.29
		l333.151-0.16l0.16,347.622l-68.118,0.16l0.16,67.798l-265.354,0.16V48.29z" style="fill: rgb(75, 75, 75);"></path>
</g>
</svg>
